<?xml version="1.0" encoding="UTF-8"?>
<!DOCTYPE svg PUBLIC "-//W3C//DTD SVG 1.1//EN" "http://www.w3.org/Graphics/SVG/1.1/DTD/svg11.dtd">
<svg xmlns="http://www.w3.org/2000/svg" version="1.1" width="1024px" height="1024px" style="shape-rendering:geometricPrecision; text-rendering:geometricPrecision; image-rendering:optimizeQuality; fill-rule:evenodd; clip-rule:evenodd" xmlns:xlink="http://www.w3.org/1999/xlink">
<g><path style="opacity:0.237" fill="#2a3c46" d="M 522.5,324.5 C 515.833,325.167 509.167,325.833 502.5,326.5C 494.833,326.5 487.167,326.5 479.5,326.5C 457.5,326.5 435.5,326.5 413.5,326.5C 412.833,326.5 412.5,326.167 412.5,325.5C 449.157,324.589 485.824,324.256 522.5,324.5 Z"/></g>
<g><path style="opacity:0.721" fill="#1d2f3a" d="M 522.5,324.5 C 548.339,324.169 574.005,324.502 599.5,325.5C 594.637,325.181 589.97,325.514 585.5,326.5C 578.5,326.5 571.5,326.5 564.5,326.5C 552.167,326.5 539.833,326.5 527.5,326.5C 519.167,326.5 510.833,326.5 502.5,326.5C 509.167,325.833 515.833,325.167 522.5,324.5 Z"/></g>
<g><path style="opacity:0.442" fill="#06161f" d="M 585.5,326.5 C 589.97,325.514 594.637,325.181 599.5,325.5C 609.628,324.369 618.961,326.369 627.5,331.5C 626.833,331.5 626.5,331.833 626.5,332.5C 626.167,332.5 625.833,332.5 625.5,332.5C 623.147,330.657 620.48,329.323 617.5,328.5C 613.546,327.619 609.546,326.952 605.5,326.5C 598.833,326.5 592.167,326.5 585.5,326.5 Z"/></g>
<g><path style="opacity:1" fill="#495a62" d="M 479.5,326.5 C 487.167,326.5 494.833,326.5 502.5,326.5C 510.833,326.5 519.167,326.5 527.5,326.5C 494.093,330.194 460.426,332.694 426.5,334C 419.877,335.179 413.211,336.179 406.5,337C 404.585,339.4 402.919,341.9 401.5,344.5C 400.833,344.5 400.167,344.5 399.5,344.5C 399.082,343.778 398.416,343.278 397.5,343C 398.381,342.292 399.047,341.458 399.5,340.5C 403.969,334.432 409.969,331.265 417.5,331C 420.697,329.99 423.863,328.823 427,327.5C 444.618,328.756 462.118,328.422 479.5,326.5 Z"/></g>
<g><path style="opacity:1" fill="#42525a" d="M 527.5,326.5 C 539.833,326.5 552.167,326.5 564.5,326.5C 530.925,328.655 497.258,331.488 463.5,335C 448.164,335.611 432.831,336.278 417.5,337C 415.347,337.099 413.681,337.933 412.5,339.5C 409.077,341.561 405.41,343.228 401.5,344.5C 402.919,341.9 404.585,339.4 406.5,337C 413.211,336.179 419.877,335.179 426.5,334C 460.426,332.694 494.093,330.194 527.5,326.5 Z"/></g>
<g><path style="opacity:1" fill="#3c4c55" d="M 564.5,326.5 C 571.5,326.5 578.5,326.5 585.5,326.5C 592.167,326.5 598.833,326.5 605.5,326.5C 583.485,328.873 561.485,330.873 539.5,332.5C 523.172,331.847 507.005,332.847 491,335.5C 490.549,333.071 489.715,332.904 488.5,335C 475.523,336.071 462.523,336.737 449.5,337C 447.324,337.163 445.491,337.996 444,339.5C 439.667,338.833 435.333,338.167 431,337.5C 425.273,339.111 419.106,339.778 412.5,339.5C 413.681,337.933 415.347,337.099 417.5,337C 432.831,336.278 448.164,335.611 463.5,335C 497.258,331.488 530.925,328.655 564.5,326.5 Z"/></g>
<g><path style="opacity:1" fill="#30414a" d="M 605.5,326.5 C 609.546,326.952 613.546,327.619 617.5,328.5C 617.64,330.124 616.973,331.29 615.5,332C 598.453,332.216 581.453,333.216 564.5,335C 565.5,335.333 566.5,335.667 567.5,336C 535.974,336.63 504.474,338.463 473,341.5C 465.174,340.47 457.341,340.636 449.5,342C 446.823,342.249 444.49,343.249 442.5,345C 442.957,345.414 443.291,345.914 443.5,346.5C 438.983,352.56 435.316,358.893 432.5,365.5C 432.5,359.5 432.5,353.5 432.5,347.5C 433.306,346.003 433.972,344.336 434.5,342.5C 436.078,341.702 437.744,341.202 439.5,341C 470.178,338.147 501.178,336.314 532.5,335.5C 535.5,335.167 538.5,334.833 541.5,334.5C 540.757,333.818 540.091,333.151 539.5,332.5C 561.485,330.873 583.485,328.873 605.5,326.5 Z"/></g>
<g><path style="opacity:1" fill="#23343d" d="M 625.5,332.5 C 625.833,332.5 626.167,332.5 626.5,332.5C 627.71,332.932 628.71,333.599 629.5,334.5C 626.919,336.004 624.086,337.004 621,337.5C 620.667,337.167 620.333,336.833 620,336.5C 617.641,337.72 616.141,339.053 615.5,340.5C 612.978,339.911 610.478,339.245 608,338.5C 604.87,339.422 601.87,339.422 599,338.5C 597.562,339.718 595.895,340.385 594,340.5C 586.18,340.298 578.514,340.298 571,340.5C 561.696,341.098 552.529,342.098 543.5,343.5C 540.833,343.5 538.167,343.5 535.5,343.5C 519.167,343.5 502.833,343.5 486.5,343.5C 488.292,342.691 490.292,342.191 492.5,342C 525.554,341.061 558.554,339.394 591.5,337C 596.418,336.116 601.251,334.95 606,333.5C 607.144,333.911 608.311,334.244 609.5,334.5C 615.005,333.328 620.338,332.662 625.5,332.5 Z"/></g>
<g><path style="opacity:0.541" fill="#3f4d59" d="M 412.5,325.5 C 412.5,326.167 412.833,326.5 413.5,326.5C 413.5,326.833 413.5,327.167 413.5,327.5C 397.244,330.101 385.577,338.768 378.5,353.5C 377.313,355.072 376.313,356.739 375.5,358.5C 375.5,357.833 375.167,357.5 374.5,357.5C 381.395,339.935 394.062,329.269 412.5,325.5 Z"/></g>
<g><path style="opacity:1" fill="#1c2e36" d="M 629.5,334.5 C 631.411,335.075 633.078,336.075 634.5,337.5C 634.5,338.5 634.5,339.5 634.5,340.5C 633.5,340.5 632.5,340.5 631.5,340.5C 631.307,344.449 630.807,344.449 630,340.5C 627.899,341.615 625.733,341.615 623.5,340.5C 621.229,341.271 619.062,342.271 617,343.5C 607.473,341.066 597.973,341.066 588.5,343.5C 573.5,343.5 558.5,343.5 543.5,343.5C 552.529,342.098 561.696,341.098 571,340.5C 578.514,340.298 586.18,340.298 594,340.5C 595.895,340.385 597.562,339.718 599,338.5C 601.87,339.422 604.87,339.422 608,338.5C 610.478,339.245 612.978,339.911 615.5,340.5C 616.141,339.053 617.641,337.72 620,336.5C 620.333,336.833 620.667,337.167 621,337.5C 624.086,337.004 626.919,336.004 629.5,334.5 Z"/></g>
<g><path style="opacity:0.816" fill="#0d1d27" d="M 486.5,343.5 C 502.833,343.5 519.167,343.5 535.5,343.5C 557.5,344.167 579.5,344.833 601.5,345.5C 551.833,345.5 502.167,345.5 452.5,345.5C 452.831,368.006 452.497,390.34 451.5,412.5C 451.828,401.986 451.494,391.653 450.5,381.5C 450.5,372.167 450.5,362.833 450.5,353.5C 450.5,351.167 450.5,348.833 450.5,346.5C 450.414,345.504 450.748,344.671 451.5,344C 463.162,343.5 474.829,343.333 486.5,343.5 Z"/></g>
<g><path style="opacity:1" fill="#293a43" d="M 617.5,328.5 C 620.48,329.323 623.147,330.657 625.5,332.5C 620.338,332.662 615.005,333.328 609.5,334.5C 608.311,334.244 607.144,333.911 606,333.5C 601.251,334.95 596.418,336.116 591.5,337C 558.554,339.394 525.554,341.061 492.5,342C 490.292,342.191 488.292,342.691 486.5,343.5C 474.829,343.333 463.162,343.5 451.5,344C 450.748,344.671 450.414,345.504 450.5,346.5C 449.504,346.414 448.671,346.748 448,347.5C 447.667,348.833 447.333,350.167 447,351.5C 444.15,355.109 441.483,358.776 439,362.5C 438.202,365.893 437.202,369.226 436,372.5C 435.667,372.167 435.333,371.833 435,371.5C 434.183,380.321 433.35,388.988 432.5,397.5C 432.5,386.833 432.5,376.167 432.5,365.5C 435.316,358.893 438.983,352.56 443.5,346.5C 443.291,345.914 442.957,345.414 442.5,345C 444.49,343.249 446.823,342.249 449.5,342C 457.341,340.636 465.174,340.47 473,341.5C 504.474,338.463 535.974,336.63 567.5,336C 566.5,335.667 565.5,335.333 564.5,335C 581.453,333.216 598.453,332.216 615.5,332C 616.973,331.29 617.64,330.124 617.5,328.5 Z"/></g>
<g><path style="opacity:1" fill="#182831" d="M 634.5,337.5 C 635.833,338.167 636.833,339.167 637.5,340.5C 636.596,341.209 636.263,342.209 636.5,343.5C 640.073,343.977 640.906,345.644 639,348.5C 638.667,347.833 638.333,347.167 638,346.5C 635.215,349.718 633.882,353.384 634,357.5C 634.75,358.126 635.584,358.626 636.5,359C 635.907,370.184 635.907,381.684 636.5,393.5C 634.521,411.304 633.187,428.971 632.5,446.5C 631.156,444.107 631.156,437.773 632.5,427.5C 630.982,418.174 629.982,408.841 629.5,399.5C 629.5,387.167 629.5,374.833 629.5,362.5C 626.617,351.122 619.283,344.955 607.5,344C 601.175,343.5 594.842,343.334 588.5,343.5C 597.973,341.066 607.473,341.066 617,343.5C 619.062,342.271 621.229,341.271 623.5,340.5C 625.733,341.615 627.899,341.615 630,340.5C 630.807,344.449 631.307,344.449 631.5,340.5C 632.5,340.5 633.5,340.5 634.5,340.5C 634.5,339.5 634.5,338.5 634.5,337.5 Z"/></g>
<g><path style="opacity:1" fill="#6b7984" d="M 413.5,327.5 C 412.435,328.865 410.435,329.698 407.5,330C 406.833,331 406.167,332 405.5,333C 396.505,334.855 390.338,340.022 387,348.5C 384.545,351.077 381.878,353.411 379,355.5C 378.536,354.906 378.369,354.239 378.5,353.5C 385.577,338.768 397.244,330.101 413.5,327.5 Z"/></g>
<g><path style="opacity:0.753" fill="#030d15" d="M 535.5,343.5 C 538.167,343.5 540.833,343.5 543.5,343.5C 558.5,343.5 573.5,343.5 588.5,343.5C 594.842,343.334 601.175,343.5 607.5,344C 619.283,344.955 626.617,351.122 629.5,362.5C 628.539,364.265 628.205,366.265 628.5,368.5C 628.51,358.367 623.843,351.2 614.5,347C 610.187,346.265 605.853,345.765 601.5,345.5C 579.5,344.833 557.5,344.167 535.5,343.5 Z"/></g>
<g><path style="opacity:1" fill="#23343d" d="M 450.5,346.5 C 450.5,348.833 450.5,351.167 450.5,353.5C 446.914,356.55 446.581,360.05 449.5,364C 447.519,364.605 447.185,365.605 448.5,367C 447.552,367.483 446.552,367.649 445.5,367.5C 445.773,369.451 445.107,370.951 443.5,372C 444.973,372.71 445.64,373.876 445.5,375.5C 444.5,375.5 443.5,375.5 442.5,375.5C 442.988,378.711 442.321,381.544 440.5,384C 441.299,385.749 440.632,387.082 438.5,388C 439.833,388.667 439.833,389.333 438.5,390C 440.878,390.974 440.544,391.641 437.5,392C 438.022,392.561 438.355,393.228 438.5,394C 437.018,398.824 435.018,403.324 432.5,407.5C 432.5,404.167 432.5,400.833 432.5,397.5C 433.35,388.988 434.183,380.321 435,371.5C 435.333,371.833 435.667,372.167 436,372.5C 437.202,369.226 438.202,365.893 439,362.5C 441.483,358.776 444.15,355.109 447,351.5C 447.333,350.167 447.667,348.833 448,347.5C 448.671,346.748 449.504,346.414 450.5,346.5 Z"/></g>
<g><path style="opacity:1" fill="#1d2d38" d="M 450.5,353.5 C 450.5,362.833 450.5,372.167 450.5,381.5C 450.5,387.5 450.5,393.5 450.5,399.5C 449.839,398.282 449.172,396.949 448.5,395.5C 447.619,398.93 446.452,402.263 445,405.5C 442.069,406.569 440.902,408.402 441.5,411C 438.475,411.154 436.809,412.654 436.5,415.5C 435.5,415.5 434.5,415.5 433.5,415.5C 432.612,412.946 432.279,410.279 432.5,407.5C 435.018,403.324 437.018,398.824 438.5,394C 438.355,393.228 438.022,392.561 437.5,392C 440.544,391.641 440.878,390.974 438.5,390C 439.833,389.333 439.833,388.667 438.5,388C 440.632,387.082 441.299,385.749 440.5,384C 442.321,381.544 442.988,378.711 442.5,375.5C 443.5,375.5 444.5,375.5 445.5,375.5C 445.64,373.876 444.973,372.71 443.5,372C 445.107,370.951 445.773,369.451 445.5,367.5C 446.552,367.649 447.552,367.483 448.5,367C 447.185,365.605 447.519,364.605 449.5,364C 446.581,360.05 446.914,356.55 450.5,353.5 Z"/></g>
<g><path style="opacity:1" fill="#44525c" d="M 399.5,344.5 C 398.675,373.297 397.009,401.963 394.5,430.5C 395.405,435.648 395.738,440.648 395.5,445.5C 394.71,446.609 394.21,447.942 394,449.5C 393.472,461.581 392.638,472.914 391.5,483.5C 391.747,466.072 391.081,448.739 389.5,431.5C 390.478,431.189 391.145,430.522 391.5,429.5C 388.327,424.447 387.827,419.113 390,413.5C 390.689,412.643 391.522,411.977 392.5,411.5C 393.011,391.432 394.345,371.432 396.5,351.5C 395.008,348.27 396.008,345.937 399.5,344.5 Z"/></g>
<g><path style="opacity:0.626" fill="#12222d" d="M 413.5,343.5 C 419.176,343.334 424.843,343.501 430.5,344C 431.973,344.71 432.64,345.876 432.5,347.5C 432.5,353.5 432.5,359.5 432.5,365.5C 432.5,376.167 432.5,386.833 432.5,397.5C 432.5,400.833 432.5,404.167 432.5,407.5C 432.279,410.279 432.612,412.946 433.5,415.5C 434.82,417.817 436.486,419.817 438.5,421.5C 438.5,421.833 438.5,422.167 438.5,422.5C 433.964,420.785 431.464,417.452 431,412.5C 430.667,390.167 430.333,367.833 430,345.5C 425.263,344.531 420.43,344.197 415.5,344.5C 414.508,344.672 413.842,344.338 413.5,343.5 Z"/></g>
<g><path style="opacity:1" fill="#596770" d="M 413.5,327.5 C 413.5,327.167 413.5,326.833 413.5,326.5C 435.5,326.5 457.5,326.5 479.5,326.5C 462.118,328.422 444.618,328.756 427,327.5C 423.863,328.823 420.697,329.99 417.5,331C 409.969,331.265 403.969,334.432 399.5,340.5C 398.5,340.5 397.5,340.5 396.5,340.5C 393.346,349.409 392.68,358.576 394.5,368C 394,370.5 393.5,373 393,375.5C 392.333,376.833 391.333,377.833 390,378.5C 389.791,384.581 389.291,390.581 388.5,396.5C 388.167,396.5 387.833,396.5 387.5,396.5C 385.052,395.527 382.385,395.194 379.5,395.5C 380.651,390.655 380.651,385.822 379.5,381C 379.808,379.541 380.475,378.374 381.5,377.5C 385.761,376.947 388.594,374.613 390,370.5C 390.498,367.518 390.665,364.518 390.5,361.5C 389.209,361.263 388.209,361.596 387.5,362.5C 387.167,362.5 386.833,362.5 386.5,362.5C 386.5,361.167 385.833,360.5 384.5,360.5C 381.35,361.643 378.35,362.31 375.5,362.5C 375.5,361.167 375.5,359.833 375.5,358.5C 376.313,356.739 377.313,355.072 378.5,353.5C 378.369,354.239 378.536,354.906 379,355.5C 381.878,353.411 384.545,351.077 387,348.5C 390.338,340.022 396.505,334.855 405.5,333C 406.167,332 406.833,331 407.5,330C 410.435,329.698 412.435,328.865 413.5,327.5 Z"/></g>
<g><path style="opacity:1" fill="#112028" d="M 637.5,340.5 C 639.9,342.296 641.567,344.63 642.5,347.5C 640.891,350.707 641.225,353.707 643.5,356.5C 641.076,358.303 639.409,360.637 638.5,363.5C 639.677,365.863 640.343,368.363 640.5,371C 640.081,374.884 639.748,379.051 639.5,383.5C 638.448,383.351 637.448,383.517 636.5,384C 638.862,386.871 639.862,390.204 639.5,394C 637.758,403.593 636.425,413.093 635.5,422.5C 636.366,426.609 636.699,430.776 636.5,435C 636.458,436.967 635.958,438.801 635,440.5C 634.415,465.998 633.915,491.498 633.5,517C 634.043,539.716 634.376,562.383 634.5,585C 634.7,587.866 634.033,590.366 632.5,592.5C 632.514,543.678 632.514,495.011 632.5,446.5C 633.187,428.971 634.521,411.304 636.5,393.5C 635.907,381.684 635.907,370.184 636.5,359C 635.584,358.626 634.75,358.126 634,357.5C 633.882,353.384 635.215,349.718 638,346.5C 638.333,347.167 638.667,347.833 639,348.5C 640.906,345.644 640.073,343.977 636.5,343.5C 636.263,342.209 636.596,341.209 637.5,340.5 Z"/></g>
<g><path style="opacity:1" fill="#36464f" d="M 539.5,332.5 C 540.091,333.151 540.757,333.818 541.5,334.5C 538.5,334.833 535.5,335.167 532.5,335.5C 501.178,336.314 470.178,338.147 439.5,341C 437.744,341.202 436.078,341.702 434.5,342.5C 433.972,344.336 433.306,346.003 432.5,347.5C 432.64,345.876 431.973,344.71 430.5,344C 424.843,343.501 419.176,343.334 413.5,343.5C 410.732,345.091 408.398,347.091 406.5,349.5C 405.833,349.5 405.5,349.833 405.5,350.5C 403.494,369.82 401.994,389.487 401,409.5C 400.027,411.392 399.36,413.392 399,415.5C 398.667,424.833 398.333,434.167 398,443.5C 395.856,457.044 394.856,470.711 395,484.5C 393.171,489.378 393.337,494.212 395.5,499C 394.382,507.267 394.382,515.601 395.5,524C 395.887,528.249 394.887,532.083 392.5,535.5C 391.893,535.376 391.56,535.043 391.5,534.5C 391.867,526.691 391.201,519.024 389.5,511.5C 390.497,511.53 391.164,511.03 391.5,510C 387.177,501.782 387.677,493.615 393,485.5C 394.115,472.182 394.948,458.849 395.5,445.5C 395.738,440.648 395.405,435.648 394.5,430.5C 397.009,401.963 398.675,373.297 399.5,344.5C 400.167,344.5 400.833,344.5 401.5,344.5C 405.41,343.228 409.077,341.561 412.5,339.5C 419.106,339.778 425.273,339.111 431,337.5C 435.333,338.167 439.667,338.833 444,339.5C 445.491,337.996 447.324,337.163 449.5,337C 462.523,336.737 475.523,336.071 488.5,335C 489.715,332.904 490.549,333.071 491,335.5C 507.005,332.847 523.172,331.847 539.5,332.5 Z"/></g>
<g><path style="opacity:1" fill="#08181b" d="M 647.5,356.5 C 648.222,356.918 648.722,357.584 649,358.5C 649.5,370.162 649.667,381.829 649.5,393.5C 648.846,397.476 648.179,401.476 647.5,405.5C 647.532,407.759 647.866,409.925 648.5,412C 647.572,412.388 646.905,413.055 646.5,414C 647.233,415.766 647.567,417.599 647.5,419.5C 646.167,419.5 644.833,419.5 643.5,419.5C 643.649,443.55 642.649,467.55 640.5,491.5C 641.045,496.484 641.378,501.484 641.5,506.5C 641.429,510.687 640.762,514.687 639.5,518.5C 641.185,520.017 642.685,521.684 644,523.5C 645,520.833 646,520.833 647,523.5C 647.667,526.833 647.667,530.167 647,533.5C 646.5,534 646,534.5 645.5,535C 646.76,537.213 647.426,539.713 647.5,542.5C 647.333,544.833 647.167,547.167 647,549.5C 645.312,550.325 645.145,551.325 646.5,552.5C 645.753,552.736 644.92,553.07 644,553.5C 643.026,551.122 642.359,551.456 642,554.5C 641.502,557.482 641.335,560.482 641.5,563.5C 641.156,567.053 640.489,570.553 639.5,574C 640.601,579.794 640.768,585.627 640,591.5C 638.908,593.931 637.741,593.931 636.5,591.5C 636.359,581.541 637.026,571.541 638.5,561.5C 637.76,554.84 637.093,548.174 636.5,541.5C 636.629,519.814 636.629,498.148 636.5,476.5C 637.167,466.167 637.833,455.833 638.5,445.5C 637.815,442.175 638.149,438.842 639.5,435.5C 639.392,430.597 639.392,425.764 639.5,421C 640.09,418.804 640.757,416.638 641.5,414.5C 640.689,409.603 640.356,404.77 640.5,400C 641.288,396.924 641.788,393.758 642,390.5C 644.913,386.72 645.08,382.72 642.5,378.5C 643.833,373.167 643.833,367.833 642.5,362.5C 643.771,362.874 644.938,362.208 646,360.5C 646.21,358.942 646.71,357.609 647.5,356.5 Z"/></g>
<g><path style="opacity:1" fill="#4e5e68" d="M 399.5,340.5 C 399.047,341.458 398.381,342.292 397.5,343C 398.416,343.278 399.082,343.778 399.5,344.5C 396.008,345.937 395.008,348.27 396.5,351.5C 394.345,371.432 393.011,391.432 392.5,411.5C 391.522,411.977 390.689,412.643 390,413.5C 387.827,419.113 388.327,424.447 391.5,429.5C 391.145,430.522 390.478,431.189 389.5,431.5C 388.009,431.901 386.342,432.068 384.5,432C 381.269,434.727 378.603,437.894 376.5,441.5C 375.5,415.175 375.167,388.842 375.5,362.5C 378.35,362.31 381.35,361.643 384.5,360.5C 379.239,365.477 378.239,371.144 381.5,377.5C 380.475,378.374 379.808,379.541 379.5,381C 380.651,385.822 380.651,390.655 379.5,395.5C 382.385,395.194 385.052,395.527 387.5,396.5C 386.127,396.343 384.793,396.51 383.5,397C 379.758,401.517 378.591,406.684 380,412.5C 384.795,414.084 388.128,412.418 390,407.5C 390.667,404.167 390.667,400.833 390,397.5C 389.617,396.944 389.117,396.611 388.5,396.5C 389.291,390.581 389.791,384.581 390,378.5C 391.333,377.833 392.333,376.833 393,375.5C 393.5,373 394,370.5 394.5,368C 392.68,358.576 393.346,349.409 396.5,340.5C 397.5,340.5 398.5,340.5 399.5,340.5 Z M 385.5,397.5 C 386.822,397.33 387.989,397.663 389,398.5C 390.47,404.781 388.47,409.448 383,412.5C 381.141,411.355 380.307,409.688 380.5,407.5C 381.133,403.568 382.799,400.234 385.5,397.5 Z M 386.5,362.5 C 386.833,362.5 387.167,362.5 387.5,362.5C 390.374,368.044 388.874,372.377 383,375.5C 382.228,375.355 381.561,375.022 381,374.5C 379.909,369.022 381.742,365.022 386.5,362.5 Z"/></g>
<g><path style="opacity:0.424" fill="#283843" d="M 387.5,396.5 C 387.833,396.5 388.167,396.5 388.5,396.5C 389.117,396.611 389.617,396.944 390,397.5C 390.667,400.833 390.667,404.167 390,407.5C 388.128,412.418 384.795,414.084 380,412.5C 378.591,406.684 379.758,401.517 383.5,397C 384.793,396.51 386.127,396.343 387.5,396.5 Z M 385.5,397.5 C 382.799,400.234 381.133,403.568 380.5,407.5C 380.307,409.688 381.141,411.355 383,412.5C 388.47,409.448 390.47,404.781 389,398.5C 387.989,397.663 386.822,397.33 385.5,397.5 Z"/></g>
<g><path style="opacity:0.671" fill="#32424d" d="M 384.5,360.5 C 385.833,360.5 386.5,361.167 386.5,362.5C 381.742,365.022 379.909,369.022 381,374.5C 381.561,375.022 382.228,375.355 383,375.5C 388.874,372.377 390.374,368.044 387.5,362.5C 388.209,361.596 389.209,361.263 390.5,361.5C 390.665,364.518 390.498,367.518 390,370.5C 388.594,374.613 385.761,376.947 381.5,377.5C 378.239,371.144 379.239,365.477 384.5,360.5 Z M 386.5,362.5 C 386.833,362.5 387.167,362.5 387.5,362.5C 390.374,368.044 388.874,372.377 383,375.5C 382.228,375.355 381.561,375.022 381,374.5C 379.909,369.022 381.742,365.022 386.5,362.5 Z"/></g>
<g><path style="opacity:1" fill="#24353e" d="M 406.5,349.5 C 407.051,363.476 406.385,377.476 404.5,391.5C 404.68,392.554 405.013,393.554 405.5,394.5C 404.681,410.456 404.181,426.456 404,442.5C 402.695,447.711 402.529,452.878 403.5,458C 400.677,468.17 400.01,478.503 401.5,489C 400.5,493.333 399.5,497.667 398.5,502C 398.759,503.261 399.426,504.261 400.5,505C 399.822,515.47 399.156,525.97 398.5,536.5C 398.833,537.167 399.167,537.833 399.5,538.5C 398.153,544.107 396.486,549.607 394.5,555C 395.66,558.311 396.327,561.478 396.5,564.5C 394.5,565.5 392.5,566.5 390.5,567.5C 391.556,563.471 391.556,559.471 390.5,555.5C 390.665,549.846 392.498,544.846 396,540.5C 396.573,535.674 397.073,530.841 397.5,526C 396.481,515.846 396.314,505.68 397,495.5C 400.353,447.18 403.187,398.846 405.5,350.5C 405.5,349.833 405.833,349.5 406.5,349.5 Z"/></g>
<g><path style="opacity:1" fill="#041515" d="M 649.5,393.5 C 650.499,459.331 650.832,525.331 650.5,591.5C 648.836,592.949 648.002,594.949 648,597.5C 646.336,591.872 646.002,586.205 647,580.5C 646.272,586.622 645.772,586.789 645.5,581C 647.306,576 646.973,570.833 644.5,565.5C 643.735,564.388 642.735,563.721 641.5,563.5C 641.335,560.482 641.502,557.482 642,554.5C 642.359,551.456 643.026,551.122 644,553.5C 644.92,553.07 645.753,552.736 646.5,552.5C 645.145,551.325 645.312,550.325 647,549.5C 647.167,547.167 647.333,544.833 647.5,542.5C 647.426,539.713 646.76,537.213 645.5,535C 646,534.5 646.5,534 647,533.5C 647.667,530.167 647.667,526.833 647,523.5C 646,520.833 645,520.833 644,523.5C 642.685,521.684 641.185,520.017 639.5,518.5C 640.762,514.687 641.429,510.687 641.5,506.5C 641.378,501.484 641.045,496.484 640.5,491.5C 642.649,467.55 643.649,443.55 643.5,419.5C 644.833,419.5 646.167,419.5 647.5,419.5C 647.567,417.599 647.233,415.766 646.5,414C 646.905,413.055 647.572,412.388 648.5,412C 647.866,409.925 647.532,407.759 647.5,405.5C 648.179,401.476 648.846,397.476 649.5,393.5 Z"/></g>
<g><path style="opacity:1" fill="#2e3f49" d="M 405.5,350.5 C 403.187,398.846 400.353,447.18 397,495.5C 396.314,505.68 396.481,515.846 397.5,526C 397.073,530.841 396.573,535.674 396,540.5C 392.498,544.846 390.665,549.846 390.5,555.5C 391.556,559.471 391.556,563.471 390.5,567.5C 388.833,568.833 387.167,570.167 385.5,571.5C 383.121,559.647 384.454,548.314 389.5,537.5C 389.932,536.29 390.599,535.29 391.5,534.5C 391.56,535.043 391.893,535.376 392.5,535.5C 394.887,532.083 395.887,528.249 395.5,524C 394.382,515.601 394.382,507.267 395.5,499C 393.337,494.212 393.171,489.378 395,484.5C 394.856,470.711 395.856,457.044 398,443.5C 398.333,434.167 398.667,424.833 399,415.5C 399.36,413.392 400.027,411.392 401,409.5C 401.994,389.487 403.494,369.82 405.5,350.5 Z"/></g>
<g><path style="opacity:0.418" fill="#22323d" d="M 374.5,357.5 C 375.167,357.5 375.5,357.833 375.5,358.5C 375.5,359.833 375.5,361.167 375.5,362.5C 375.167,388.842 375.5,415.175 376.5,441.5C 378.603,437.894 381.269,434.727 384.5,432C 386.342,432.068 388.009,431.901 389.5,431.5C 391.081,448.739 391.747,466.072 391.5,483.5C 384.037,488.123 378.704,494.457 375.5,502.5C 375.167,502.5 374.833,502.5 374.5,502.5C 376.913,494.351 381.746,488.018 389,483.5C 389.5,466.837 389.667,450.17 389.5,433.5C 387.801,433.34 386.134,433.506 384.5,434C 381.683,436.638 379.35,439.638 377.5,443C 376.551,443.617 375.718,443.451 375,442.5C 373.63,414.305 373.463,385.972 374.5,357.5 Z"/></g>
<g><path style="opacity:1" fill="#10202e" d="M 629.5,399.5 C 629.982,408.841 630.982,418.174 632.5,427.5C 631.156,437.773 631.156,444.107 632.5,446.5C 632.514,495.011 632.514,543.678 632.5,592.5C 631.609,593.11 630.609,593.443 629.5,593.5C 629.5,528.833 629.5,464.167 629.5,399.5 Z"/></g>
<g><path style="opacity:1" fill="#12222c" d="M 408.5,391.5 C 408.5,441.833 408.5,492.167 408.5,542.5C 406.871,544.06 405.704,543.727 405,541.5C 404.58,537.809 404.08,534.142 403.5,530.5C 404.154,485.209 405.321,440.209 407,395.5C 407.21,393.942 407.71,392.609 408.5,391.5 Z"/></g>
<g><path style="opacity:1" fill="#3c4d58" d="M 395.5,445.5 C 394.948,458.849 394.115,472.182 393,485.5C 387.677,493.615 387.177,501.782 391.5,510C 391.164,511.03 390.497,511.53 389.5,511.5C 387.894,512.359 386.227,512.526 384.5,512C 381.24,515.425 378.574,519.259 376.5,523.5C 375.503,516.532 375.17,509.532 375.5,502.5C 378.704,494.457 384.037,488.123 391.5,483.5C 392.638,472.914 393.472,461.581 394,449.5C 394.21,447.942 394.71,446.609 395.5,445.5 Z"/></g>
<g><path style="opacity:1" fill="#203039" d="M 413.5,343.5 C 413.842,344.338 414.508,344.672 415.5,344.5C 413.909,345.219 412.409,346.219 411,347.5C 410.5,412.499 410.333,477.499 410.5,542.5C 409.667,479.001 409.167,415.335 409,351.5C 408.5,364.829 408.333,378.163 408.5,391.5C 407.71,392.609 407.21,393.942 407,395.5C 405.321,440.209 404.154,485.209 403.5,530.5C 402.732,531.263 402.232,532.263 402,533.5C 401.833,536.833 401.667,540.167 401.5,543.5C 401.886,550.352 402.219,557.018 402.5,563.5C 400.565,564.15 398.565,564.483 396.5,564.5C 396.327,561.478 395.66,558.311 394.5,555C 396.486,549.607 398.153,544.107 399.5,538.5C 399.167,537.833 398.833,537.167 398.5,536.5C 399.156,525.97 399.822,515.47 400.5,505C 399.426,504.261 398.759,503.261 398.5,502C 399.5,497.667 400.5,493.333 401.5,489C 400.01,478.503 400.677,468.17 403.5,458C 402.529,452.878 402.695,447.711 404,442.5C 404.181,426.456 404.681,410.456 405.5,394.5C 405.013,393.554 404.68,392.554 404.5,391.5C 406.385,377.476 407.051,363.476 406.5,349.5C 408.398,347.091 410.732,345.091 413.5,343.5 Z"/></g>
<g><path style="opacity:0.386" fill="#0f222f" d="M 374.5,502.5 C 374.833,502.5 375.167,502.5 375.5,502.5C 375.17,509.532 375.503,516.532 376.5,523.5C 378.574,519.259 381.24,515.425 384.5,512C 386.227,512.526 387.894,512.359 389.5,511.5C 391.201,519.024 391.867,526.691 391.5,534.5C 390.599,535.29 389.932,536.29 389.5,537.5C 384.068,541.433 379.901,546.433 377,552.5C 375.588,564.104 375.088,575.771 375.5,587.5C 374.539,589.265 374.205,591.265 374.5,593.5C 373.111,580.297 373.278,566.964 375,553.5C 375.806,550.554 377.139,547.888 379,545.5C 389.093,537.268 392.593,526.601 389.5,513.5C 387.801,513.34 386.134,513.506 384.5,514C 381.61,518.293 378.61,522.459 375.5,526.5C 374.713,525.758 374.047,524.925 373.5,524C 373.417,516.921 373.75,509.755 374.5,502.5 Z"/></g>
<g><path style="opacity:1" fill="#16272e" d="M 403.5,530.5 C 404.08,534.142 404.58,537.809 405,541.5C 405.704,543.727 406.871,544.06 408.5,542.5C 408.611,543.117 408.944,543.617 409.5,544C 418.13,545.086 426.797,545.753 435.5,546C 436.737,546.232 437.737,546.732 438.5,547.5C 437.837,549.042 437.17,550.709 436.5,552.5C 435.063,549.956 433.563,549.956 432,552.5C 425.407,551.578 418.907,551.244 412.5,551.5C 411.833,553.833 411.167,556.167 410.5,558.5C 409.035,557.391 408.035,557.891 407.5,560C 408.5,560.333 409.5,560.667 410.5,561C 409.429,561.852 408.429,562.685 407.5,563.5C 406.5,563.5 405.5,563.5 404.5,563.5C 403.833,563.5 403.167,563.5 402.5,563.5C 402.219,557.018 401.886,550.352 401.5,543.5C 401.667,540.167 401.833,536.833 402,533.5C 402.232,532.263 402.732,531.263 403.5,530.5 Z"/></g>
<g><path style="opacity:1" fill="#112329" d="M 438.5,547.5 C 443.353,548.36 446.686,551.027 448.5,555.5C 448.262,562.457 444.928,567.29 438.5,570C 438.833,570.333 439.167,570.667 439.5,571C 437.606,572.101 436.939,573.434 437.5,575C 438.684,576.18 439.351,577.68 439.5,579.5C 437.991,586.414 437.157,593.414 437,600.5C 435.539,602.982 434.039,602.982 432.5,600.5C 432.667,588.495 432.5,576.495 432,564.5C 423.919,563.518 415.752,563.184 407.5,563.5C 408.429,562.685 409.429,561.852 410.5,561C 409.5,560.667 408.5,560.333 407.5,560C 408.035,557.891 409.035,557.391 410.5,558.5C 411.167,556.167 411.833,553.833 412.5,551.5C 418.907,551.244 425.407,551.578 432,552.5C 433.563,549.956 435.063,549.956 436.5,552.5C 437.17,550.709 437.837,549.042 438.5,547.5 Z"/></g>
<g><path style="opacity:1" fill="#0c1d23" d="M 448.5,555.5 C 449.268,556.263 449.768,557.263 450,558.5C 450.5,575.497 450.667,592.497 450.5,609.5C 449.209,610.542 449.209,611.708 450.5,613C 450,613.167 449.5,613.333 449,613.5C 447.054,611.038 444.554,609.704 441.5,609.5C 441.799,611.604 441.466,613.604 440.5,615.5C 438.657,615.755 436.657,615.922 434.5,616C 432.35,617.649 430.35,619.482 428.5,621.5C 425.701,619.904 423.701,620.57 422.5,623.5C 420.753,623.407 418.919,623.074 417,622.5C 414.465,625.871 411.631,626.538 408.5,624.5C 404.983,625.348 402.316,627.348 400.5,630.5C 398.929,631.309 397.262,631.643 395.5,631.5C 395.528,635.155 393.861,637.822 390.5,639.5C 388.5,643.167 386.5,646.833 384.5,650.5C 384.863,651.183 385.196,651.85 385.5,652.5C 384.883,652.611 384.383,652.944 384,653.5C 383.479,656.919 382.645,660.252 381.5,663.5C 380.675,664.386 379.675,664.719 378.5,664.5C 377.833,662.833 377.167,661.167 376.5,659.5C 378.466,658.745 378.8,657.579 377.5,656C 378.227,648.208 381.561,641.875 387.5,637C 387.043,636.586 386.709,636.086 386.5,635.5C 387.815,633.684 389.315,632.017 391,630.5C 391.483,629.552 391.649,628.552 391.5,627.5C 396.401,626.895 399.401,624.228 400.5,619.5C 401.552,619.649 402.552,619.483 403.5,619C 404.5,617.333 405.833,616 407.5,615C 405.866,614.506 404.199,614.34 402.5,614.5C 411.324,613.67 420.324,613.17 429.5,613C 430.416,612.626 431.25,612.126 432,611.5C 432.499,607.848 432.665,604.182 432.5,600.5C 434.039,602.982 435.539,602.982 437,600.5C 437.157,593.414 437.991,586.414 439.5,579.5C 439.351,577.68 438.684,576.18 437.5,575C 436.939,573.434 437.606,572.101 439.5,571C 439.167,570.667 438.833,570.333 438.5,570C 444.928,567.29 448.262,562.457 448.5,555.5 Z"/></g>
<g><path style="opacity:1" fill="#354b5b" d="M 389.5,537.5 C 384.454,548.314 383.121,559.647 385.5,571.5C 379.534,578.836 376.867,587.336 377.5,597C 377.167,597.5 376.833,598 376.5,598.5C 375.511,594.893 375.177,591.226 375.5,587.5C 375.088,575.771 375.588,564.104 377,552.5C 379.901,546.433 384.068,541.433 389.5,537.5 Z"/></g>
<g><path style="opacity:0.737" fill="#020912" d="M 404.5,563.5 C 405.5,563.5 406.5,563.5 407.5,563.5C 415.752,563.184 423.919,563.518 432,564.5C 432.5,576.495 432.667,588.495 432.5,600.5C 432.665,604.182 432.499,607.848 432,611.5C 431.25,612.126 430.416,612.626 429.5,613C 420.324,613.17 411.324,613.67 402.5,614.5C 399.843,614.935 397.509,615.935 395.5,617.5C 386.996,622 380.996,628.666 377.5,637.5C 377.5,636.833 377.167,636.5 376.5,636.5C 381.295,623.208 390.629,615.041 404.5,612C 412.187,610.662 419.854,610.495 427.5,611.5C 428.672,611.081 429.672,610.415 430.5,609.5C 430.54,595.012 430.54,580.346 430.5,565.5C 421.833,564.833 413.167,564.167 404.5,563.5 Z"/></g>
<g><path style="opacity:0.342" fill="#061622" d="M 402.5,563.5 C 403.167,563.5 403.833,563.5 404.5,563.5C 413.167,564.167 421.833,564.833 430.5,565.5C 418.447,565.109 406.447,565.609 394.5,567C 383.654,572.52 378.82,581.353 380,593.5C 376.684,605.113 374.85,605.113 374.5,593.5C 374.205,591.265 374.539,589.265 375.5,587.5C 375.177,591.226 375.511,594.893 376.5,598.5C 376.833,598 377.167,597.5 377.5,597C 376.867,587.336 379.534,578.836 385.5,571.5C 387.167,570.167 388.833,568.833 390.5,567.5C 392.5,566.5 394.5,565.5 396.5,564.5C 398.565,564.483 400.565,564.15 402.5,563.5 Z"/></g>
<g><path style="opacity:1" fill="#08161b" d="M 641.5,563.5 C 642.735,563.721 643.735,564.388 644.5,565.5C 646.973,570.833 647.306,576 645.5,581C 645.772,586.789 646.272,586.622 647,580.5C 646.002,586.205 646.336,591.872 648,597.5C 648.002,594.949 648.836,592.949 650.5,591.5C 650.721,594.279 650.388,596.946 649.5,599.5C 647.826,604.006 646.16,608.673 644.5,613.5C 642.801,613.34 641.134,613.506 639.5,614C 631.808,623.023 622.142,628.69 610.5,631C 543.819,631.612 477.152,631.946 410.5,632C 403.231,633.778 397.897,637.944 394.5,644.5C 393.432,643.566 392.099,643.232 390.5,643.5C 390.288,646.558 388.955,649.058 386.5,651C 387.84,653.179 387.507,653.679 385.5,652.5C 385.196,651.85 384.863,651.183 384.5,650.5C 386.5,646.833 388.5,643.167 390.5,639.5C 393.861,637.822 395.528,635.155 395.5,631.5C 397.262,631.643 398.929,631.309 400.5,630.5C 402.316,627.348 404.983,625.348 408.5,624.5C 411.631,626.538 414.465,625.871 417,622.5C 418.919,623.074 420.753,623.407 422.5,623.5C 427.203,623.88 431.536,622.88 435.5,620.5C 438.481,620.439 441.148,621.272 443.5,623C 447.5,623.167 451.5,623.333 455.5,623.5C 460.018,623.435 464.351,622.769 468.5,621.5C 475.96,623.42 483.627,624.087 491.5,623.5C 491.5,622.5 491.5,621.5 491.5,620.5C 492.833,620.5 494.167,620.5 495.5,620.5C 495.5,621.5 495.5,622.5 495.5,623.5C 498.167,623.5 500.833,623.5 503.5,623.5C 503.5,622.5 503.5,621.5 503.5,620.5C 511.5,620.5 519.5,620.5 527.5,620.5C 527.5,621.5 527.5,622.5 527.5,623.5C 532.833,623.5 538.167,623.5 543.5,623.5C 543.5,622.5 543.5,621.5 543.5,620.5C 566.176,620.628 588.843,620.295 611.5,619.5C 611.5,618.5 611.5,617.5 611.5,616.5C 615.785,615.705 620.119,615.372 624.5,615.5C 624.343,614.127 624.51,612.793 625,611.5C 625.333,611.833 625.667,612.167 626,612.5C 626.5,611.333 627.333,610.5 628.5,610C 628.112,608.192 628.112,606.525 628.5,605C 629.883,602.877 631.55,601.877 633.5,602C 633.043,601.586 632.709,601.086 632.5,600.5C 634.078,597.572 635.411,594.572 636.5,591.5C 637.741,593.931 638.908,593.931 640,591.5C 640.768,585.627 640.601,579.794 639.5,574C 640.489,570.553 641.156,567.053 641.5,563.5 Z"/></g>
<g><path style="opacity:1" fill="#0a191d" d="M 450.5,609.5 C 450.611,610.117 450.944,610.617 451.5,611C 454.854,611.455 458.187,611.955 461.5,612.5C 461.45,614.59 462.45,615.923 464.5,616.5C 513.682,616.084 562.682,616.084 611.5,616.5C 611.5,617.5 611.5,618.5 611.5,619.5C 588.843,620.295 566.176,620.628 543.5,620.5C 543.5,621.5 543.5,622.5 543.5,623.5C 538.167,623.5 532.833,623.5 527.5,623.5C 527.5,622.5 527.5,621.5 527.5,620.5C 519.5,620.5 511.5,620.5 503.5,620.5C 503.5,621.5 503.5,622.5 503.5,623.5C 500.833,623.5 498.167,623.5 495.5,623.5C 495.5,622.5 495.5,621.5 495.5,620.5C 494.167,620.5 492.833,620.5 491.5,620.5C 491.5,621.5 491.5,622.5 491.5,623.5C 483.627,624.087 475.96,623.42 468.5,621.5C 464.351,622.769 460.018,623.435 455.5,623.5C 451.5,623.333 447.5,623.167 443.5,623C 441.148,621.272 438.481,620.439 435.5,620.5C 431.536,622.88 427.203,623.88 422.5,623.5C 423.701,620.57 425.701,619.904 428.5,621.5C 430.35,619.482 432.35,617.649 434.5,616C 436.657,615.922 438.657,615.755 440.5,615.5C 441.466,613.604 441.799,611.604 441.5,609.5C 444.554,609.704 447.054,611.038 449,613.5C 449.5,613.333 450,613.167 450.5,613C 449.209,611.708 449.209,610.542 450.5,609.5 Z"/></g>
<g><path style="opacity:0.73" fill="#01050d" d="M 410.5,542.5 C 419.791,543.2 429.125,544.033 438.5,545C 446.142,546.973 450.642,551.807 452,559.5C 452.333,575.5 452.667,591.5 453,607.5C 453.374,608.416 453.874,609.25 454.5,610C 507.146,610.379 559.313,610.546 611,610.5C 622.854,607.323 628.521,599.657 628,587.5C 628.491,514.293 628.658,441.293 628.5,368.5C 628.205,366.265 628.539,364.265 629.5,362.5C 629.5,374.833 629.5,387.167 629.5,399.5C 629.5,464.167 629.5,528.833 629.5,593.5C 628.885,597.847 627.385,601.847 625,605.5C 620.528,608.653 615.694,611.153 610.5,613C 560.837,612.779 511.171,612.613 461.5,612.5C 458.187,611.955 454.854,611.455 451.5,611C 450.944,610.617 450.611,610.117 450.5,609.5C 450.667,592.497 450.5,575.497 450,558.5C 449.768,557.263 449.268,556.263 448.5,555.5C 446.686,551.027 443.353,548.36 438.5,547.5C 437.737,546.732 436.737,546.232 435.5,546C 426.797,545.753 418.13,545.086 409.5,544C 408.944,543.617 408.611,543.117 408.5,542.5C 408.5,492.167 408.5,441.833 408.5,391.5C 408.333,378.163 408.5,364.829 409,351.5C 409.167,415.335 409.667,479.001 410.5,542.5 Z M 510.5,460.5 C 530.632,460.129 537.465,469.462 531,488.5C 520.261,499.112 509.594,499.112 499,488.5C 493.247,475.025 497.081,465.691 510.5,460.5 Z"/></g>
<g><path style="opacity:0.52" fill="#000409" d="M 598.5,554.5 C 608.261,555.094 612.928,560.26 612.5,570C 612.312,585.681 604.312,592.848 588.5,591.5C 580.143,590.985 576.31,586.652 577,578.5C 578.152,576.351 579.652,574.518 581.5,573C 585.089,572.793 588.589,572.293 592,571.5C 592.231,567.416 592.898,563.416 594,559.5C 595.025,557.313 596.525,555.646 598.5,554.5 Z"/></g>
<g><path style="opacity:1" fill="#0d1f27" d="M 609.5,577.5 C 609.725,572.752 609.225,568.085 608,563.5C 605.266,564.362 605.099,565.195 607.5,566C 605.51,567.751 603.177,568.751 600.5,569C 601.167,569.333 601.833,569.667 602.5,570C 599.855,570.591 599.189,571.925 600.5,574C 599.681,575.319 598.681,576.485 597.5,577.5C 596.808,576.975 596.308,576.308 596,575.5C 594.625,577.376 593.458,579.376 592.5,581.5C 591.167,578.833 589.833,578.833 588.5,581.5C 586.383,578.433 583.716,577.766 580.5,579.5C 580.5,578.5 580.5,577.5 580.5,576.5C 580.611,575.883 580.944,575.383 581.5,575C 585.619,574.857 589.619,574.19 593.5,573C 594.3,568.92 594.8,564.753 595,560.5C 600.638,555.02 605.638,555.687 610,562.5C 610.816,567.684 610.65,572.684 609.5,577.5 Z"/></g>
<g><path style="opacity:1" fill="#091a22" d="M 609.5,577.5 C 609.116,580.769 607.782,583.603 605.5,586C 598.797,589.034 591.797,590.034 584.5,589C 578.373,586.117 577.04,581.951 580.5,576.5C 580.5,577.5 580.5,578.5 580.5,579.5C 583.716,577.766 586.383,578.433 588.5,581.5C 589.833,578.833 591.167,578.833 592.5,581.5C 593.458,579.376 594.625,577.376 596,575.5C 596.308,576.308 596.808,576.975 597.5,577.5C 598.681,576.485 599.681,575.319 600.5,574C 599.189,571.925 599.855,570.591 602.5,570C 601.833,569.667 601.167,569.333 600.5,569C 603.177,568.751 605.51,567.751 607.5,566C 605.099,565.195 605.266,564.362 608,563.5C 609.225,568.085 609.725,572.752 609.5,577.5 Z"/></g>
<g><path style="opacity:0.543" fill="#01060a" d="M 523.5,440.5 C 523.5,439.833 523.833,439.5 524.5,439.5C 544.67,444.849 555.67,458.016 557.5,479C 551.917,507.933 534.583,520.6 505.5,517C 493.428,513.638 484.428,506.471 478.5,495.5C 478.5,494.833 478.833,494.5 479.5,494.5C 479.833,495.167 480.167,495.833 480.5,496.5C 487.36,507.098 497.027,513.431 509.5,515.5C 535.941,517.423 551.274,505.09 555.5,478.5C 554.981,470.267 552.314,462.933 547.5,456.5C 547.167,455.5 546.5,454.833 545.5,454.5C 542.51,450.514 538.843,447.18 534.5,444.5C 530.991,442.774 527.325,441.441 523.5,440.5 Z"/></g>
<g><path style="opacity:1" fill="#102129" d="M 524.5,460.5 C 510.417,455.466 500.584,459.8 495,473.5C 493.466,490.13 500.966,498.13 517.5,497.5C 516.391,498.29 515.058,498.79 513.5,499C 514.126,499.75 514.626,500.584 515,501.5C 526.036,501.358 533.87,496.025 538.5,485.5C 540.39,485.703 541.89,485.037 543,483.5C 544.179,477.318 544.179,470.985 543,464.5C 542.346,465.696 541.846,465.696 541.5,464.5C 543.041,461.216 544.374,457.882 545.5,454.5C 546.5,454.833 547.167,455.5 547.5,456.5C 548.329,462.339 549.329,468.173 550.5,474C 550.645,479.374 548.645,483.707 544.5,487C 546.602,494.997 543.269,499.497 534.5,500.5C 535.262,500.911 536.262,501.077 537.5,501C 534.983,503.251 531.983,504.084 528.5,503.5C 528.714,505.144 528.38,506.644 527.5,508C 525.231,508.758 523.064,508.591 521,507.5C 520.676,509.569 519.842,509.902 518.5,508.5C 517.402,512.361 516.569,512.361 516,508.5C 515.505,510.473 515.338,512.473 515.5,514.5C 513.265,514.205 511.265,514.539 509.5,515.5C 497.027,513.431 487.36,507.098 480.5,496.5C 481.708,495.766 483.041,495.433 484.5,495.5C 484.382,491.305 485.215,487.305 487,483.5C 488.978,484.816 490.478,484.316 491.5,482C 488.53,479.895 487.363,477.062 488,473.5C 491.62,469.141 495.453,464.975 499.5,461C 498.483,459.951 498.316,458.784 499,457.5C 499.333,457.833 499.667,458.167 500,458.5C 502.961,457.81 505.794,456.81 508.5,455.5C 509.167,455.667 509.833,455.833 510.5,456C 509.5,456.333 508.5,456.667 507.5,457C 508.167,457.167 508.833,457.333 509.5,457.5C 513.335,455.874 517.335,454.874 521.5,454.5C 525.241,455.107 526.241,457.107 524.5,460.5 Z M 510.5,460.5 C 497.081,465.691 493.247,475.025 499,488.5C 509.594,499.112 520.261,499.112 531,488.5C 537.465,469.462 530.632,460.129 510.5,460.5 Z"/></g>
<g><path style="opacity:0.469" fill="#01080f" d="M 524.5,460.5 C 531.264,463.614 534.931,468.947 535.5,476.5C 535.786,488.946 529.786,495.946 517.5,497.5C 500.966,498.13 493.466,490.13 495,473.5C 500.584,459.8 510.417,455.466 524.5,460.5 Z M 510.5,460.5 C 497.081,465.691 493.247,475.025 499,488.5C 509.594,499.112 520.261,499.112 531,488.5C 537.465,469.462 530.632,460.129 510.5,460.5 Z"/></g>
<g><path style="opacity:1" fill="#1a2d35" d="M 535.5,476.5 C 537.121,476.787 538.121,477.787 538.5,479.5C 539.111,481.286 539.111,483.286 538.5,485.5C 533.87,496.025 526.036,501.358 515,501.5C 514.626,500.584 514.126,499.75 513.5,499C 515.058,498.79 516.391,498.29 517.5,497.5C 529.786,495.946 535.786,488.946 535.5,476.5 Z"/></g>
<g><path style="opacity:1" fill="#091a21" d="M 547.5,456.5 C 552.314,462.933 554.981,470.267 555.5,478.5C 551.274,505.09 535.941,517.423 509.5,515.5C 511.265,514.539 513.265,514.205 515.5,514.5C 515.338,512.473 515.505,510.473 516,508.5C 516.569,512.361 517.402,512.361 518.5,508.5C 519.842,509.902 520.676,509.569 521,507.5C 523.064,508.591 525.231,508.758 527.5,508C 528.38,506.644 528.714,505.144 528.5,503.5C 531.983,504.084 534.983,503.251 537.5,501C 536.262,501.077 535.262,500.911 534.5,500.5C 543.269,499.497 546.602,494.997 544.5,487C 548.645,483.707 550.645,479.374 550.5,474C 549.329,468.173 548.329,462.339 547.5,456.5 Z"/></g>
<g><path style="opacity:1" fill="#23343c" d="M 517.5,439.5 C 518.5,439.5 519.5,439.5 520.5,439.5C 514.089,443.87 507.089,447.204 499.5,449.5C 491.221,455.706 484.054,463.039 478,471.5C 477.24,475.988 476.406,480.322 475.5,484.5C 473.714,472.623 476.714,462.29 484.5,453.5C 484.843,455.225 485.843,455.725 487.5,455C 489.624,453.379 491.624,451.546 493.5,449.5C 501.527,445.891 509.527,442.558 517.5,439.5 Z"/></g>
<g><path style="opacity:0.608" fill="#040f18" d="M 524.5,439.5 C 523.833,439.5 523.5,439.833 523.5,440.5C 522.391,440.443 521.391,440.11 520.5,439.5C 519.5,439.5 518.5,439.5 517.5,439.5C 503.902,438.357 492.902,443.024 484.5,453.5C 476.714,462.29 473.714,472.623 475.5,484.5C 476.055,487.096 477.055,489.429 478.5,491.5C 478.557,492.609 478.89,493.609 479.5,494.5C 478.833,494.5 478.5,494.833 478.5,495.5C 468.944,472.006 475.278,453.839 497.5,441C 506.48,437.193 515.48,436.693 524.5,439.5 Z"/></g>
<g><path style="opacity:1" fill="#2b3b44" d="M 517.5,439.5 C 509.527,442.558 501.527,445.891 493.5,449.5C 491.624,451.546 489.624,453.379 487.5,455C 485.843,455.725 484.843,455.225 484.5,453.5C 492.902,443.024 503.902,438.357 517.5,439.5 Z"/></g>
<g><path style="opacity:1" fill="#13262e" d="M 534.5,444.5 C 538.843,447.18 542.51,450.514 545.5,454.5C 544.374,457.882 543.041,461.216 541.5,464.5C 541.846,465.696 542.346,465.696 543,464.5C 544.179,470.985 544.179,477.318 543,483.5C 541.89,485.037 540.39,485.703 538.5,485.5C 539.111,483.286 539.111,481.286 538.5,479.5C 538.121,477.787 537.121,476.787 535.5,476.5C 534.931,468.947 531.264,463.614 524.5,460.5C 526.241,457.107 525.241,455.107 521.5,454.5C 517.335,454.874 513.335,455.874 509.5,457.5C 508.833,457.333 508.167,457.167 507.5,457C 508.5,456.667 509.5,456.333 510.5,456C 509.833,455.833 509.167,455.667 508.5,455.5C 505.794,456.81 502.961,457.81 500,458.5C 499.667,458.167 499.333,457.833 499,457.5C 498.316,458.784 498.483,459.951 499.5,461C 495.453,464.975 491.62,469.141 488,473.5C 487.363,477.062 488.53,479.895 491.5,482C 490.478,484.316 488.978,484.816 487,483.5C 485.215,487.305 484.382,491.305 484.5,495.5C 483.041,495.433 481.708,495.766 480.5,496.5C 480.167,495.833 479.833,495.167 479.5,494.5C 478.89,493.609 478.557,492.609 478.5,491.5C 479.696,478.356 485.029,466.856 494.5,457C 495.793,456.51 497.127,456.343 498.5,456.5C 498.22,453.612 499.553,452.112 502.5,452C 506.821,451.501 511.154,451.334 515.5,451.5C 515.5,450.5 515.5,449.5 515.5,448.5C 518.35,448.364 521.183,448.031 524,447.5C 525.716,447.748 527.216,448.415 528.5,449.5C 529.615,447.429 531.615,445.762 534.5,444.5 Z"/></g>
<g><path style="opacity:1" fill="#1b2d34" d="M 520.5,439.5 C 521.391,440.11 522.391,440.443 523.5,440.5C 527.325,441.441 530.991,442.774 534.5,444.5C 531.615,445.762 529.615,447.429 528.5,449.5C 527.216,448.415 525.716,447.748 524,447.5C 521.183,448.031 518.35,448.364 515.5,448.5C 515.5,449.5 515.5,450.5 515.5,451.5C 511.154,451.334 506.821,451.501 502.5,452C 499.553,452.112 498.22,453.612 498.5,456.5C 497.127,456.343 495.793,456.51 494.5,457C 485.029,466.856 479.696,478.356 478.5,491.5C 477.055,489.429 476.055,487.096 475.5,484.5C 476.406,480.322 477.24,475.988 478,471.5C 484.054,463.039 491.221,455.706 499.5,449.5C 507.089,447.204 514.089,443.87 520.5,439.5 Z"/></g>
<g><path style="opacity:0.554" fill="#01070c" d="M 556.5,427.5 C 569.373,427.596 573.539,433.596 569,445.5C 560.372,451.838 553.705,450.171 549,440.5C 548.435,434.286 550.935,429.953 556.5,427.5 Z"/></g>
<g><path style="opacity:1" fill="#1e2931" d="M 565.5,431.5 C 564.226,432.189 564.226,433.023 565.5,434C 560.347,436.938 555.347,439.105 550.5,440.5C 551.061,430.054 556.061,427.054 565.5,431.5 Z"/></g>
<g><path style="opacity:1" fill="#141f27" d="M 565.5,431.5 C 571.002,436.767 570.669,441.934 564.5,447C 558.053,448.946 553.387,446.78 550.5,440.5C 555.347,439.105 560.347,436.938 565.5,434C 564.226,433.023 564.226,432.189 565.5,431.5 Z"/></g>
<g><path style="opacity:1" fill="#18252e" d="M 450.5,399.5 C 450.666,404.511 450.499,409.511 450,414.5C 448.142,420.015 444.308,422.348 438.5,421.5C 436.486,419.817 434.82,417.817 433.5,415.5C 434.5,415.5 435.5,415.5 436.5,415.5C 436.809,412.654 438.475,411.154 441.5,411C 440.902,408.402 442.069,406.569 445,405.5C 446.452,402.263 447.619,398.93 448.5,395.5C 449.172,396.949 449.839,398.282 450.5,399.5 Z"/></g>
<g><path style="opacity:0.73" fill="#01060f" d="M 450.5,381.5 C 451.494,391.653 451.828,401.986 451.5,412.5C 450.473,420.56 446.139,423.893 438.5,422.5C 438.5,422.167 438.5,421.833 438.5,421.5C 444.308,422.348 448.142,420.015 450,414.5C 450.499,409.511 450.666,404.511 450.5,399.5C 450.5,393.5 450.5,387.5 450.5,381.5 Z"/></g>
<g><path style="opacity:0.706" fill="#060f17" d="M 582.5,366.5 C 589.23,366.226 595.897,366.726 602.5,368C 609.917,371.156 613.25,376.823 612.5,385C 613.701,397.476 608.367,402.476 596.5,400C 593.041,395.446 591.708,390.279 592.5,384.5C 586.961,385.362 582.128,384.028 578,380.5C 575.214,374.414 576.714,369.747 582.5,366.5 Z"/></g>
<g><path style="opacity:1" fill="#182632" d="M 581.5,368.5 C 588.175,368.334 594.842,368.5 601.5,369C 608.529,372.221 611.529,377.721 610.5,385.5C 611.733,396.782 607.067,400.948 596.5,398C 594.892,393.352 594.058,388.519 594,383.5C 589.2,383.036 584.533,382.036 580,380.5C 577.784,376.132 578.284,372.132 581.5,368.5 Z"/></g>
<g><path style="opacity:1" fill="#0c1c22" d="M 642.5,347.5 C 644.924,350.008 646.59,353.008 647.5,356.5C 646.71,357.609 646.21,358.942 646,360.5C 644.938,362.208 643.771,362.874 642.5,362.5C 643.833,367.833 643.833,373.167 642.5,378.5C 645.08,382.72 644.913,386.72 642,390.5C 641.788,393.758 641.288,396.924 640.5,400C 640.356,404.77 640.689,409.603 641.5,414.5C 640.757,416.638 640.09,418.804 639.5,421C 639.392,425.764 639.392,430.597 639.5,435.5C 638.149,438.842 637.815,442.175 638.5,445.5C 637.833,455.833 637.167,466.167 636.5,476.5C 636.629,498.148 636.629,519.814 636.5,541.5C 637.093,548.174 637.76,554.84 638.5,561.5C 637.026,571.541 636.359,581.541 636.5,591.5C 635.411,594.572 634.078,597.572 632.5,600.5C 632.709,601.086 633.043,601.586 633.5,602C 631.55,601.877 629.883,602.877 628.5,605C 628.112,606.525 628.112,608.192 628.5,610C 627.333,610.5 626.5,611.333 626,612.5C 625.667,612.167 625.333,611.833 625,611.5C 624.51,612.793 624.343,614.127 624.5,615.5C 620.119,615.372 615.785,615.705 611.5,616.5C 562.682,616.084 513.682,616.084 464.5,616.5C 462.45,615.923 461.45,614.59 461.5,612.5C 511.171,612.613 560.837,612.779 610.5,613C 615.694,611.153 620.528,608.653 625,605.5C 627.385,601.847 628.885,597.847 629.5,593.5C 630.609,593.443 631.609,593.11 632.5,592.5C 634.033,590.366 634.7,587.866 634.5,585C 634.376,562.383 634.043,539.716 633.5,517C 633.915,491.498 634.415,465.998 635,440.5C 635.958,438.801 636.458,436.967 636.5,435C 636.699,430.776 636.366,426.609 635.5,422.5C 636.425,413.093 637.758,403.593 639.5,394C 639.862,390.204 638.862,386.871 636.5,384C 637.448,383.517 638.448,383.351 639.5,383.5C 639.748,379.051 640.081,374.884 640.5,371C 640.343,368.363 639.677,365.863 638.5,363.5C 639.409,360.637 641.076,358.303 643.5,356.5C 641.225,353.707 640.891,350.707 642.5,347.5 Z"/></g>
<g><path style="opacity:1" fill="#021316" d="M 649.5,599.5 C 649.667,617.836 649.5,636.17 649,654.5C 644.749,674.585 632.582,686.918 612.5,691.5C 609.678,691.322 607.011,690.655 604.5,689.5C 599.821,689.829 595.155,690.162 590.5,690.5C 581.362,688.653 581.696,687.653 591.5,687.5C 591.5,684.833 591.5,682.167 591.5,679.5C 570.167,679.5 548.833,679.5 527.5,679.5C 527.5,680.833 527.5,682.167 527.5,683.5C 521.841,683.112 516.507,681.778 511.5,679.5C 511.5,682.167 511.5,684.833 511.5,687.5C 492.033,686.566 473.366,686.566 455.5,687.5C 455.5,684.833 455.5,682.167 455.5,679.5C 449.605,680.054 443.938,679.388 438.5,677.5C 436.5,678.833 434.5,680.167 432.5,681.5C 431.534,679.604 431.201,677.604 431.5,675.5C 426.167,675.5 420.833,675.5 415.5,675.5C 415.5,679.5 415.5,683.5 415.5,687.5C 420.179,687.334 424.845,687.501 429.5,688C 430.696,688.654 430.696,689.154 429.5,689.5C 421.533,690.147 413.533,689.48 405.5,687.5C 404.584,687.543 403.917,687.876 403.5,688.5C 391.916,683.916 383.582,675.916 378.5,664.5C 379.675,664.719 380.675,664.386 381.5,663.5C 382.645,660.252 383.479,656.919 384,653.5C 384.383,652.944 384.883,652.611 385.5,652.5C 387.507,653.679 387.84,653.179 386.5,651C 388.955,649.058 390.288,646.558 390.5,643.5C 392.099,643.232 393.432,643.566 394.5,644.5C 392.922,659.859 399.589,669.359 414.5,673C 479.833,672.375 545.166,672.375 610.5,673C 616.112,670.861 621.446,668.194 626.5,665C 630.454,660.258 634.287,655.424 638,650.5C 640.612,644.108 641.945,637.441 642,630.5C 645.439,625.115 646.273,619.448 644.5,613.5C 646.16,608.673 647.826,604.006 649.5,599.5 Z"/></g>
<g><path style="opacity:1" fill="#20333d" d="M 395.5,617.5 C 396.239,617.369 396.906,617.536 397.5,618C 395.343,620.38 393.009,622.546 390.5,624.5C 389.031,629.625 386.698,634.292 383.5,638.5C 380.442,640.445 378.276,643.111 377,646.5C 376.517,645.552 376.351,644.552 376.5,643.5C 376.517,641.435 376.85,639.435 377.5,637.5C 380.996,628.666 386.996,622 395.5,617.5 Z"/></g>
<g><path style="opacity:0.541" fill="#000508" d="M 626.5,332.5 C 626.5,331.833 626.833,331.5 627.5,331.5C 639.296,337.378 647.129,346.711 651,359.5C 652.957,458.083 652.957,556.75 651,655.5C 646.652,675.515 634.486,688.015 614.5,693C 579.494,693.229 544.494,693.729 509.5,694.5C 489.984,694.667 470.484,694.334 451,693.5C 450,694.167 449,694.833 448,695.5C 434.977,694.882 421.81,694.382 408.5,694C 387.934,686.78 376.267,672.446 373.5,651C 373.594,645.922 374.594,641.088 376.5,636.5C 377.167,636.5 377.5,636.833 377.5,637.5C 376.85,639.435 376.517,641.435 376.5,643.5C 375.364,648.681 375.364,654.015 376.5,659.5C 377.167,661.167 377.833,662.833 378.5,664.5C 383.582,675.916 391.916,683.916 403.5,688.5C 405.811,690.068 408.478,690.902 411.5,691C 478.661,692.664 545.661,692.831 612.5,691.5C 632.582,686.918 644.749,674.585 649,654.5C 649.5,636.17 649.667,617.836 649.5,599.5C 650.388,596.946 650.721,594.279 650.5,591.5C 650.832,525.331 650.499,459.331 649.5,393.5C 649.667,381.829 649.5,370.162 649,358.5C 648.722,357.584 648.222,356.918 647.5,356.5C 646.59,353.008 644.924,350.008 642.5,347.5C 641.567,344.63 639.9,342.296 637.5,340.5C 636.833,339.167 635.833,338.167 634.5,337.5C 633.078,336.075 631.411,335.075 629.5,334.5C 628.71,333.599 627.71,332.932 626.5,332.5 Z"/></g>
<g><path style="opacity:0.993" fill="#142930" d="M 402.5,614.5 C 404.199,614.34 405.866,614.506 407.5,615C 405.833,616 404.5,617.333 403.5,619C 402.552,619.483 401.552,619.649 400.5,619.5C 399.401,624.228 396.401,626.895 391.5,627.5C 391.649,628.552 391.483,629.552 391,630.5C 389.315,632.017 387.815,633.684 386.5,635.5C 386.709,636.086 387.043,636.586 387.5,637C 381.561,641.875 378.227,648.208 377.5,656C 378.8,657.579 378.466,658.745 376.5,659.5C 375.364,654.015 375.364,648.681 376.5,643.5C 376.351,644.552 376.517,645.552 377,646.5C 378.276,643.111 380.442,640.445 383.5,638.5C 386.698,634.292 389.031,629.625 390.5,624.5C 393.009,622.546 395.343,620.38 397.5,618C 396.906,617.536 396.239,617.369 395.5,617.5C 397.509,615.935 399.843,614.935 402.5,614.5 Z"/></g>
<g><path style="opacity:0.636" fill="#01070b" d="M 644.5,613.5 C 646.273,619.448 645.439,625.115 642,630.5C 641.945,637.441 640.612,644.108 638,650.5C 634.287,655.424 630.454,660.258 626.5,665C 621.446,668.194 616.112,670.861 610.5,673C 545.166,672.375 479.833,672.375 414.5,673C 399.589,669.359 392.922,659.859 394.5,644.5C 397.897,637.944 403.231,633.778 410.5,632C 477.152,631.946 543.819,631.612 610.5,631C 622.142,628.69 631.808,623.023 639.5,614C 641.134,613.506 642.801,613.34 644.5,613.5 Z M 452.5,670.5 C 451.586,667.272 451.253,663.939 451.5,660.5C 444.167,660.5 436.833,660.5 429.5,660.5C 430.426,664.93 429.093,668.263 425.5,670.5C 414.684,671.463 406.017,667.796 399.5,659.5C 402.212,658.108 405.046,656.775 408,655.5C 408.452,649.477 410.119,643.81 413,638.5C 415.326,636.934 417.492,635.268 419.5,633.5C 482.834,633.667 546.168,633.5 609.5,633C 622.362,631.071 633.029,625.238 641.5,615.5C 642.308,615.808 642.975,616.308 643.5,617C 643.95,622.657 642.283,627.824 638.5,632.5C 640.58,643.183 637.08,651.517 628,657.5C 627.837,659.676 627.004,661.509 625.5,663C 621.167,665.896 616.5,668.229 611.5,670C 558.501,670.5 505.501,670.667 452.5,670.5 Z"/></g>
<g><path style="opacity:0.138" fill="#0a1b21" d="M 419.5,633.5 C 417.492,635.268 415.326,636.934 413,638.5C 410.119,643.81 408.452,649.477 408,655.5C 405.046,656.775 402.212,658.108 399.5,659.5C 394.201,648.577 397.201,640.41 408.5,635C 412.06,633.763 415.727,633.263 419.5,633.5 Z"/></g>
<g><path style="opacity:0.164" fill="#112228" d="M 452.5,670.5 C 443.5,670.5 434.5,670.5 425.5,670.5C 429.093,668.263 430.426,664.93 429.5,660.5C 436.833,660.5 444.167,660.5 451.5,660.5C 451.253,663.939 451.586,667.272 452.5,670.5 Z"/></g>
<g><path style="opacity:0.02" fill="#0c1c23" d="M 567.5,661.5 C 570.073,661.148 572.406,661.648 574.5,663C 573.333,663.167 572.167,663.333 571,663.5C 569.319,663.392 568.152,662.725 567.5,661.5 Z"/></g>
<g><path style="opacity:0.371" fill="#081822" d="M 472.5,641.5 C 458.323,641.171 444.323,641.504 430.5,642.5C 430.33,643.822 430.663,644.989 431.5,646C 439.159,646.5 446.826,646.666 454.5,646.5C 473.5,646.5 492.5,646.5 511.5,646.5C 522.833,646.5 534.167,646.5 545.5,646.5C 564.833,646.5 584.167,646.5 603.5,646.5C 608.844,646.666 614.177,646.499 619.5,646C 621.869,645.464 623.869,644.297 625.5,642.5C 623.833,642.167 622.167,641.833 620.5,641.5C 602.188,641.825 583.855,641.825 565.5,641.5C 580.68,640.206 596.013,640.206 611.5,641.5C 616.6,640.962 621.6,639.962 626.5,638.5C 630.753,641.942 630.086,644.442 624.5,646C 621.833,646.667 619.167,647.333 616.5,648C 608.333,648.167 600.167,648.333 592,648.5C 538.162,647.348 484.329,647.181 430.5,648C 426.529,645.023 426.529,642.19 430.5,639.5C 444.322,639.792 458.322,640.458 472.5,641.5 Z"/></g>
<g><path style="opacity:0.567" fill="#182a3b" d="M 563.5,642.5 C 575.838,642.333 588.171,642.5 600.5,643C 602.056,643.72 603.056,644.887 603.5,646.5C 584.167,646.5 564.833,646.5 545.5,646.5C 551.679,645.833 558.012,645.167 564.5,644.5C 564.137,643.817 563.804,643.15 563.5,642.5 Z"/></g>
<g><path style="opacity:0.698" fill="#2a4052" d="M 430.5,642.5 C 437.776,642.129 444.942,642.796 452,644.5C 453.011,643.944 453.844,643.278 454.5,642.5C 454.5,643.833 454.5,645.167 454.5,646.5C 446.826,646.666 439.159,646.5 431.5,646C 430.663,644.989 430.33,643.822 430.5,642.5 Z"/></g>
<g><path style="opacity:1" fill="#556984" d="M 530.5,642.5 C 534.167,642.5 537.833,642.5 541.5,642.5C 548.833,642.5 556.167,642.5 563.5,642.5C 563.804,643.15 564.137,643.817 564.5,644.5C 558.012,645.167 551.679,645.833 545.5,646.5C 534.167,646.5 522.833,646.5 511.5,646.5C 518.012,645.833 524.679,645.167 531.5,644.5C 531.137,643.817 530.804,643.15 530.5,642.5 Z"/></g>
<g><path style="opacity:0.466" fill="#0e1f2c" d="M 541.5,642.5 C 541.5,642.167 541.5,641.833 541.5,641.5C 549.5,641.5 557.5,641.5 565.5,641.5C 583.855,641.825 602.188,641.825 620.5,641.5C 622.167,641.833 623.833,642.167 625.5,642.5C 623.869,644.297 621.869,645.464 619.5,646C 614.177,646.499 608.844,646.666 603.5,646.5C 603.056,644.887 602.056,643.72 600.5,643C 588.171,642.5 575.838,642.333 563.5,642.5C 556.167,642.5 548.833,642.5 541.5,642.5 Z"/></g>
<g><path style="opacity:1" fill="#5d728e" d="M 454.5,642.5 C 479.833,642.5 505.167,642.5 530.5,642.5C 530.804,643.15 531.137,643.817 531.5,644.5C 524.679,645.167 518.012,645.833 511.5,646.5C 492.5,646.5 473.5,646.5 454.5,646.5C 454.5,645.167 454.5,643.833 454.5,642.5 Z"/></g>
<g><path style="opacity:0.518" fill="#142938" d="M 541.5,641.5 C 541.5,641.833 541.5,642.167 541.5,642.5C 537.833,642.5 534.167,642.5 530.5,642.5C 505.167,642.5 479.833,642.5 454.5,642.5C 453.844,643.278 453.011,643.944 452,644.5C 444.942,642.796 437.776,642.129 430.5,642.5C 444.323,641.504 458.323,641.171 472.5,641.5C 495.418,641.312 518.418,641.312 541.5,641.5 Z"/></g>
<g><path style="opacity:1" fill="#021115" d="M 612.5,691.5 C 545.661,692.831 478.661,692.664 411.5,691C 408.478,690.902 405.811,690.068 403.5,688.5C 403.917,687.876 404.584,687.543 405.5,687.5C 413.533,689.48 421.533,690.147 429.5,689.5C 430.696,689.154 430.696,688.654 429.5,688C 424.845,687.501 420.179,687.334 415.5,687.5C 415.5,683.5 415.5,679.5 415.5,675.5C 420.833,675.5 426.167,675.5 431.5,675.5C 431.201,677.604 431.534,679.604 432.5,681.5C 434.5,680.167 436.5,678.833 438.5,677.5C 443.938,679.388 449.605,680.054 455.5,679.5C 455.5,682.167 455.5,684.833 455.5,687.5C 473.366,686.566 492.033,686.566 511.5,687.5C 511.5,684.833 511.5,682.167 511.5,679.5C 516.507,681.778 521.841,683.112 527.5,683.5C 527.5,682.167 527.5,680.833 527.5,679.5C 548.833,679.5 570.167,679.5 591.5,679.5C 591.5,682.167 591.5,684.833 591.5,687.5C 581.696,687.653 581.362,688.653 590.5,690.5C 595.155,690.162 599.821,689.829 604.5,689.5C 607.011,690.655 609.678,691.322 612.5,691.5 Z"/></g>
</svg>
